HIERARCHY
ROOT Hips
{
     OFFSET 1.88212 96.90440 -13.34250
     CHANNELS 6 Xposition Yposition Zposition Zrotation Xrotation Yrotation
     JOINT Spine
     {
          OFFSET 0.00000 11.89050 0.00000
          CHANNELS 3 Zrotation Xrotation Yrotation
          JOINT Spine1
          {
               OFFSET -0.00000 25.65740 0.12766
               CHANNELS 3 Zrotation Xrotation Yrotation
               JOINT HEad
               {
                    OFFSET 0.00000 8.73416 0.01134
                    CHANNELS 3 Zrotation Xrotation Yrotation
                    End Site
                    {
                         OFFSET -0.29000 12.77420 2.51395
                    }
               }
               JOINT LeftShoulder1
               {
                    OFFSET 8.99000 -0.36225 -0.22000
                    CHANNELS 3 Zrotation Xrotation Yrotation
                    JOINT LeftArm
                    {
                         OFFSET 10.28270 -0.00338 0.32212
                         CHANNELS 3 Zrotation Xrotation Yrotation
                         JOINT LeftForeArm
                         {
                              OFFSET 32.76690 0.09914 -1.42434
                              CHANNELS 3 Zrotation Xrotation Yrotation
                              JOINT LeftHand
                              {
                                   OFFSET 27.56430 0.08536 1.02216
                                   CHANNELS 3 Zrotation Xrotation Yrotation
                                   End Site
                                   {
                                        OFFSET 16.74430 -0.60000 1.50291
                                   }
                              }
                         }
                    }
               }
               JOINT RightShoulder
               {
                    OFFSET -8.99000 -0.36225 -0.22000
                    CHANNELS 3 Zrotation Xrotation Yrotation
                    JOINT RightArm
                    {
                         OFFSET -10.28270 -0.00338 0.32212
                         CHANNELS 3 Zrotation Xrotation Yrotation
                         JOINT RightForeArm
                         {
                              OFFSET -32.89710 0.09914 -1.42434
                              CHANNELS 3 Zrotation Xrotation Yrotation
                              JOINT RightHand
                              {
                                   OFFSET -27.49210 0.08536 1.02216
                                   CHANNELS 3 Zrotation Xrotation Yrotation
                                   End Site
                                   {
                                        OFFSET -16.63120 -0.60000 1.50291
                                   }
                              }
                         }
                    }
               }
          }
     }
     JOINT LeftUpLeg
     {
          OFFSET 8.94580 -8.66707 0.10165
          CHANNELS 3 Zrotation Xrotation Yrotation
          JOINT LeftLeg
          {
               OFFSET 0.00000 -44.42270 1.37270
               CHANNELS 3 Zrotation Xrotation Yrotation
               JOINT LeftFoot
               {
                    OFFSET -0.25355 -42.09240 -1.46059
                    CHANNELS 3 Zrotation Xrotation Yrotation
                    JOINT LeftToes
                    {
                         OFFSET -0.04000 -4.41509 8.49910
                         CHANNELS 3 Zrotation Xrotation Yrotation
                         End Site
                         {
                              OFFSET 0.08000 -0.04745 9.77979
                         }
                    }
               }
          }
     }
     JOINT RightUpLeg
     {
          OFFSET -8.94580 -8.66707 0.10165
          CHANNELS 3 Zrotation Xrotation Yrotation
          JOINT RightLeg
          {
               OFFSET 0.00000 -44.42270 1.37270
               CHANNELS 3 Zrotation Xrotation Yrotation
               JOINT RightFoot
               {
                    OFFSET 0.25355 -42.09240 -1.46059
                    CHANNELS 3 Zrotation Xrotation Yrotation
                    JOINT RightToes
                    {
                         OFFSET 0.04000 -4.41509 8.49910
                         CHANNELS 3 Zrotation Xrotation Yrotation
                         End Site
                         {
                              OFFSET -0.08000 -0.13745 9.77979
                         }
                    }
               }
          }
     }
}
MOTION
Frames: 8
Frame Time: 0.01667
40.79208 91.92085 -13.97309 -3.63335 63.53890 -134.37750 20.70115 56.32279 -13.98707 -0.01521 -0.01790 -0.00248 20.57633 15.72338 -19.94712 -0.72287 1.39509 3.70970 -59.59317 10.97688 -54.44733 -28.89045 13.98284 -89.75761 14.35078 8.30099 -11.99753 44.35727 1.16989 -7.06896 44.25913 -36.52680 52.88885 -1.97686 -8.18792 57.01762 14.97702 11.61068 9.73754 40.91822 17.24985 -33.73202 -29.00320 21.39431 88.50552 6.75008 0.00247 -0.00067 -11.12727 -23.15598 -71.50272 -65.13317 -33.11933 -22.07804 115.43999 26.41893 -85.81944 -21.93243 0.04306 -0.03335 -10.43971 54.70715 17.12698 
40.40461 91.89925 -12.97247 -2.84290 62.61694 -135.48018 21.37993 56.33994 -14.96117 -0.01281 -0.01072 -0.00372 21.69628 17.19421 -19.95032 -1.41004 1.13934 3.84549 -58.97387 11.31540 -55.47388 -28.27641 13.54954 -89.69070 13.92690 8.46147 -11.67380 43.20890 1.10753 -6.76952 44.97250 -36.66317 53.17159 -1.35432 -7.22302 58.85242 15.02649 11.67597 9.47728 39.27245 16.34286 -34.64556 -29.81189 20.89247 91.39234 6.73285 0.00283 -0.00020 -11.28927 -22.95490 -70.80179 -57.33353 -30.79961 -23.57734 116.84834 33.93032 -88.16776 -22.09734 0.05333 -0.00857 -13.04733 59.92923 17.42407 
39.97141 91.99458 -12.15760 -2.01282 61.61057 -136.38847 21.55341 55.56425 -15.48012 -0.00983 -0.00312 -0.00480 22.91139 18.90978 -20.38365 -1.75788 1.53854 3.75190 -58.37959 11.52810 -56.73483 -27.71329 13.01469 -89.52484 13.79241 8.62097 -11.91422 42.30924 1.38958 -7.00701 45.56255 -36.88370 53.50201 -0.67004 -6.06961 60.73293 15.06052 11.66591 9.17133 37.85272 15.51960 -35.51116 -30.29346 20.11699 93.72747 6.74573 0.00322 0.00001 -11.42285 -22.50596 -70.10292 -49.73494 -28.95534 -26.23853 117.59041 41.74208 -91.77213 -22.21722 0.06190 -0.00126 -14.70154 66.32164 18.56988 
39.52016 92.19022 -11.53348 0.56304 58.78301 -138.19211 20.44524 52.24070 -15.19742 -0.00623 0.00446 -0.00575 24.17962 20.74244 -21.17948 -1.78393 2.50511 3.45890 -57.87959 11.49437 -58.12006 -27.26195 12.51904 -89.25694 13.43976 8.76245 -11.47423 41.65989 1.98913 -7.68790 46.07095 -37.15029 53.93655 0.04088 -4.74135 62.62908 15.02337 11.55755 8.78214 35.89575 12.96180 -35.50108 -30.48144 19.17277 95.53482 6.78555 0.00338 0.00007 -11.49779 -21.71327 -69.37833 -43.94814 -28.81947 -31.83983 119.01921 49.85913 -97.25284 -22.15197 0.06641 0.00827 -9.98279 57.90340 13.17901 
39.05708 92.28500 -11.08667 2.64282 56.12855 -139.55362 19.26707 48.71900 -14.75679 -0.00256 0.01187 -0.00659 25.42830 22.59345 -22.25383 -1.49341 3.95549 2.99185 -57.58950 11.08053 -59.50292 -26.96618 12.23396 -88.91628 13.34853 8.92442 -11.41969 41.20855 2.88295 -8.72355 46.58241 -37.41547 54.52820 0.74590 -3.25497 64.51209 14.86724 11.33386 8.36509 34.22810 10.67591 -35.48008 -30.44336 18.15486 96.85335 6.84194 0.00293 0.00016 -11.48224 -20.45471 -68.58475 -36.78829 -28.82287 -37.09642 118.90407 60.36291 -102.11163 -20.14019 0.03254 0.08410 -15.40262 72.21029 16.34393 
38.57575 92.19821 -10.79335 4.40924 53.61174 -140.70926 18.14882 45.05552 -14.26209 0.00045 0.01896 -0.00727 26.55207 24.39407 -23.50546 -0.92240 5.79859 2.36321 -57.61974 10.16105 -60.76801 -26.85978 12.31626 -88.50748 13.26860 9.12185 -11.00277 40.86118 4.04552 -10.01664 47.19448 -37.62871 55.32239 1.41394 -1.63119 66.35453 14.55658 11.00271 7.91411 32.75339 8.58615 -35.33377 -30.27900 17.16432 97.73062 6.88020 0.00182 0.00048 -11.35315 -18.64507 -67.68483 -29.09370 -29.16126 -42.27746 122.70284 71.19707 -111.37630 -18.19443 0.08492 0.09443 -9.60224 60.16476 11.30593 
38.08302 91.99850 -10.60909 5.98658 51.09875 -141.72844 17.50565 41.57558 -14.19463 0.01715 0.03213 -0.01312 27.29032 25.93800 -24.55484 -0.49093 7.42883 1.86878 -57.77484 9.08384 -61.96869 -26.86538 12.55379 -88.14812 13.26164 9.30132 -10.65930 40.28705 5.13907 -11.18103 47.90707 -37.72261 56.24397 2.03528 0.03602 68.24928 14.20310 10.63933 7.45089 31.35135 6.49347 -35.17102 -30.05539 16.22715 98.47364 6.89625 0.00089 0.00021 -11.94503 -11.95416 -65.30907 -21.40174 -30.08825 -46.88309 140.10420 80.96382 -134.63777 -16.03663 0.03423 0.09432 -7.73301 51.60019 9.79581 
37.57465 91.82971 -10.49694 7.45008 48.60745 -142.67827 17.28005 38.39982 -14.45451 0.01857 0.03110 -0.01286 27.65857 27.15392 -25.31612 -0.06505 8.76423 1.42965 -58.10375 7.66804 -63.06667 -26.33993 14.11486 -87.33219 14.58054 8.56450 -10.83261 39.50881 6.10100 -12.05612 48.74166 -37.73655 57.29295 2.59332 1.74773 70.12919 13.78551 10.19041 6.99014 30.04810 4.41247 -34.98754 -29.81055 15.34593 99.07384 6.87517 -0.00020 0.00052 -12.86040 -2.30738 -63.00694 -13.91459 -31.51911 -50.91854 219.69060 83.72586 -220.43950 -13.54426 0.03980 0.10509 -6.92647 45.04227 9.06738 
